<?xml version="1.0" standalone="no"?>
<!DOCTYPE svg PUBLIC "-//W3C//DTD SVG 20010904//EN"
 "http://www.w3.org/TR/2001/REC-SVG-20010904/DTD/svg10.dtd">
<svg version="1.0" xmlns="http://www.w3.org/2000/svg"
 width="500.000000pt" height="500.000000pt" viewBox="0 0 500.000000 500.000000"
 preserveAspectRatio="xMidYMid meet">

<g transform="translate(0.000000,500.000000) scale(0.100000,-0.100000)"
fill="#000000" stroke="none">
<path d="M2410 4171 c0 -12 11 -67 24 -124 13 -56 29 -133 36 -170 12 -64 29
-97 51 -97 5 0 44 70 85 156 42 86 77 154 79 152 2 -1 18 -70 35 -153 35 -161
43 -185 64 -185 19 0 33 25 115 203 54 117 70 162 62 170 -16 16 -22 7 -91
-143 -34 -74 -67 -141 -73 -147 -10 -10 -20 23 -46 145 -47 215 -59 226 -113
110 -74 -163 -117 -243 -122 -228 -3 8 -17 71 -31 140 -14 69 -29 138 -33 155
-9 35 -42 48 -42 16z"/>
<path d="M2129 4025 c-14 -8 -31 -26 -38 -42 l-13 -28 -11 27 c-9 21 -16 25
-27 18 -22 -14 55 -280 82 -280 23 0 22 4 -2 82 -11 34 -20 84 -20 110 0 44 3
50 35 70 51 33 46 70 -6 43z"/>
<path d="M3067 3925 c-51 -18 -73 -39 -93 -91 -22 -58 -12 -108 30 -150 53
-53 166 -72 166 -28 0 12 -6 15 -25 10 -38 -10 -110 26 -129 63 -17 32 -21 77
-8 84 4 3 52 -17 107 -44 55 -26 105 -48 111 -48 14 -1 24 32 24 79 0 90 -96
156 -183 125z m111 -50 c32 -27 49 -74 35 -99 -7 -12 -23 -8 -95 26 -49 23
-88 45 -88 49 0 5 10 17 22 29 31 29 89 27 126 -5z"/>
<path d="M1815 3909 c-17 -4 -45 -24 -64 -42 -62 -65 -52 -164 21 -218 71 -51
171 -30 218 46 43 70 5 179 -73 210 -41 17 -58 17 -102 4z m102 -46 c29 -19
53 -69 53 -111 0 -65 -87 -119 -146 -91 -39 19 -74 74 -74 116 0 50 54 103
104 103 20 0 48 -8 63 -17z"/>
<path d="M3338 3735 c-71 -84 -128 -158 -128 -164 0 -22 24 -23 41 0 l19 24 0
-23 c0 -66 71 -132 139 -132 112 0 188 133 130 226 -25 41 -50 56 -107 64
l-42 5 51 63 c45 54 50 65 38 77 -12 12 -32 -8 -141 -140z m139 -52 c32 -21
53 -69 46 -106 -3 -16 -20 -44 -38 -63 -27 -29 -39 -34 -77 -34 -37 0 -49 5
-77 34 -31 32 -33 39 -29 81 11 95 98 138 175 88z"/>
<path d="M1472 3842 c-10 -7 -4 -18 21 -45 45 -50 77 -87 77 -90 0 -1 -13 -2
-30 -3 -37 -1 -103 -46 -119 -80 -30 -66 -2 -155 61 -195 52 -32 128 -22 174
22 23 22 37 46 41 72 5 36 6 37 25 21 14 -13 21 -15 30 -6 11 11 -75 118 -211
264 -48 51 -49 52 -69 40z m138 -187 c32 -16 60 -61 60 -95 0 -70 -57 -118
-127 -107 -52 9 -84 44 -90 101 -11 92 72 145 157 101z"/>
<path d="M1263 3434 c-42 -28 -73 -80 -73 -123 0 -40 31 -92 72 -118 80 -54
173 -26 217 64 27 57 28 93 1 93 -16 0 -20 -7 -20 -34 0 -39 -39 -92 -78 -107
-28 -11 -82 -3 -82 12 0 5 29 52 65 104 l65 94 -24 17 c-46 29 -96 29 -143 -2z
m106 -23 c13 -8 -7 -43 -96 -170 -7 -10 -41 33 -46 57 -14 74 82 151 142 113z"/>
<path d="M3840 3425 c-7 -8 -16 -15 -20 -15 -6 0 -99 -52 -224 -126 -27 -16
-51 -35 -54 -42 -9 -27 30 -22 86 12 33 20 64 36 68 36 5 0 31 -39 57 -86 39
-68 52 -83 63 -74 11 10 8 22 -18 68 -17 32 -40 70 -51 85 -10 16 -18 30 -16
32 9 8 132 75 134 73 2 -2 26 -45 55 -95 51 -91 62 -103 75 -83 9 14 -115 230
-131 230 -6 0 -17 -7 -24 -15z"/>
<path d="M1106 3215 c-5 -13 12 -37 61 -89 37 -39 81 -83 98 -97 l30 -27 -130
-7 c-149 -7 -155 -9 -155 -31 0 -13 6 -15 31 -10 17 3 87 6 155 6 114 0 124 2
134 20 10 18 -2 34 -103 136 -92 93 -115 113 -121 99z"/>
<path d="M3885 3050 c-33 -10 -72 -21 -86 -24 -96 -21 -126 -152 -49 -217 29
-24 29 -27 11 -32 -14 -3 -18 -11 -15 -24 5 -19 9 -19 117 12 62 18 124 35
140 39 18 4 27 13 27 26 0 25 1 25 -101 -5 -48 -15 -95 -23 -110 -20 -37 8
-69 45 -76 88 -8 52 24 79 133 113 49 14 90 27 92 29 5 4 -10 35 -17 34 -3 -1
-33 -9 -66 -19z"/>
<path d="M870 2881 c0 -15 12 -21 63 -30 34 -7 122 -26 195 -43 113 -27 135
-29 142 -17 14 21 4 25 -105 49 -55 11 -134 30 -177 41 -97 24 -118 24 -118 0z"/>
<path d="M1012 2710 c-58 -36 -79 -126 -46 -196 31 -66 129 -93 204 -56 93 46
97 197 7 252 -43 27 -121 26 -165 0z m156 -38 c31 -20 42 -43 42 -87 0 -29 -8
-45 -34 -71 -45 -45 -108 -48 -155 -8 -110 92 25 246 147 166z"/>
<path d="M3913 2671 c-135 -13 -153 -17 -153 -33 0 -22 -5 -22 210 -2 202 19
200 19 200 39 0 19 -43 18 -257 -4z"/>
<path d="M3770 2507 l0 -27 205 0 c198 0 205 1 205 20 0 18 -7 20 -53 20 -30
0 -122 3 -205 7 l-152 6 0 -26z"/>
<path d="M952 2374 c2 -13 35 -25 123 -47 66 -16 123 -32 127 -36 4 -3 -40
-38 -98 -76 -59 -38 -108 -75 -111 -82 -15 -38 20 -24 137 55 175 118 175 118
-17 166 -82 20 -152 36 -156 36 -5 0 -7 -7 -5 -16z"/>
<path d="M3876 2251 c-3 -5 -12 -36 -20 -69 -12 -54 -12 -61 1 -67 9 -3 17 -4
18 -3 3 4 35 132 35 141 0 10 -28 9 -34 -2z"/>
<path d="M1196 2099 c-103 -45 -121 -59 -136 -104 -9 -26 -8 -41 5 -72 18 -43
52 -83 72 -83 20 0 15 -17 -7 -23 -13 -3 -18 -10 -14 -21 8 -22 11 -21 106 19
164 71 177 77 171 91 -7 20 -19 18 -116 -22 -85 -34 -88 -35 -121 -19 -33 16
-66 65 -66 98 0 30 45 66 125 101 72 31 100 56 78 69 -4 3 -48 -13 -97 -34z"/>
<path d="M3655 1969 c-47 -42 -65 -78 -65 -133 0 -35 5 -48 22 -60 41 -29 70
-20 128 39 61 62 95 72 106 30 8 -31 -10 -76 -42 -106 -26 -25 -32 -49 -11
-49 19 0 51 37 77 87 36 71 7 133 -63 133 -23 0 -41 -13 -80 -55 -40 -44 -56
-55 -76 -53 -50 6 -36 84 25 138 19 16 34 34 34 39 0 23 -21 19 -55 -10z"/>
<path d="M1390 1800 c0 -13 7 -20 19 -20 11 0 33 -17 50 -37 24 -28 31 -47 31
-78 -1 -36 -18 -75 -33 -75 -4 0 -39 44 -78 97 l-72 97 -34 -39 c-33 -38 -38
-54 -34 -110 4 -41 46 -94 90 -112 30 -13 44 -14 81 -4 139 37 162 196 41 278
-42 28 -61 29 -61 3z m-20 -151 c67 -88 67 -99 3 -99 -22 0 -43 10 -65 29 -28
25 -33 36 -33 74 0 36 16 77 30 77 2 0 31 -37 65 -81z"/>
<path d="M3489 1725 c-15 -8 -32 -29 -38 -46 -14 -40 -14 -39 2 -39 8 0 20 11
27 25 24 45 52 42 121 -12 33 -26 70 -54 80 -62 18 -13 18 -14 -6 -43 -27 -32
-30 -43 -15 -53 6 -3 22 7 36 24 24 29 27 30 54 16 24 -12 30 -12 39 -1 9 11
6 18 -13 33 -23 18 -23 21 -9 36 14 14 14 18 3 32 -13 15 -15 15 -31 -6 l-17
-23 -48 41 c-69 57 -124 93 -143 93 -9 -1 -28 -7 -42 -15z"/>
<path d="M3380 1599 c-38 -15 -78 -58 -85 -91 -6 -26 -8 -27 -19 -13 -11 15
-13 15 -25 1 -12 -14 -7 -25 39 -79 104 -123 138 -139 207 -96 38 23 83 84 83
111 0 30 -29 20 -44 -15 -28 -69 -103 -99 -141 -57 -19 21 -18 22 38 75 48 46
57 60 57 89 0 61 -54 98 -110 75z m64 -45 c9 -8 16 -24 16 -35 0 -19 -86 -108
-104 -109 -17 0 -35 35 -36 68 0 65 84 117 124 76z"/>
<path d="M1562 1590 c-50 -21 -48 -79 7 -149 50 -65 50 -101 0 -101 -38 0 -76
25 -95 61 -15 29 -44 40 -44 17 0 -46 89 -118 144 -118 36 0 76 36 76 69 0 9
-21 46 -47 84 -38 54 -45 72 -37 85 27 42 89 17 134 -54 20 -31 30 -40 41 -34
34 22 -65 135 -128 145 -15 2 -38 0 -51 -5z"/>
<path d="M1772 1418 c3 -7 22 -15 44 -19 70 -9 112 -44 120 -100 9 -64 -4 -64
-114 -4 -56 31 -106 54 -112 50 -16 -10 -29 -74 -20 -104 14 -50 30 -71 70
-91 104 -53 210 15 210 137 0 57 -27 101 -81 128 -35 19 -122 20 -117 3z m135
-213 c-7 -22 -73 -48 -101 -41 -45 11 -86 59 -86 99 0 18 3 37 7 40 9 10 184
-86 180 -98z"/>
<path d="M3070 1391 c-39 -21 -75 -74 -66 -97 9 -23 23 -16 34 15 12 35 57 61
104 61 93 0 143 -121 79 -189 -25 -27 -36 -31 -81 -31 -44 0 -51 -3 -48 -17 5
-30 71 -29 123 2 71 41 93 111 61 189 -30 72 -134 106 -206 67z"/>
<path d="M2906 1283 c4 -21 8 -40 10 -42 6 -7 -39 -81 -50 -81 -5 0 -19 8 -30
18 -61 54 -122 89 -145 83 -22 -6 -16 -13 62 -69 48 -35 87 -68 87 -73 0 -5
-11 -26 -23 -47 -13 -20 -31 -51 -41 -69 -16 -32 -16 -32 6 -24 14 5 48 47 83
104 33 53 63 93 67 89 5 -6 68 -235 68 -248 0 -2 9 -4 20 -4 26 0 26 5 -14
145 -18 66 -41 150 -51 188 -14 54 -21 67 -37 67 -16 0 -18 -5 -12 -37z"/>
<path d="M2112 1282 c-39 -12 -94 -63 -113 -106 -38 -83 -15 -178 56 -232 22
-17 69 -35 132 -50 54 -13 101 -24 105 -24 9 0 18 34 57 209 17 74 33 142 36
151 5 14 -7 20 -61 34 -78 20 -179 28 -212 18z m161 -46 c32 -7 60 -15 62 -17
4 -5 -62 -299 -68 -306 -8 -7 -128 27 -170 48 -100 51 -97 222 4 272 41 20 95
21 172 3z"/>
<path d="M2617 1253 c-13 -12 -7 -41 9 -47 22 -9 34 1 34 30 0 17 -6 24 -18
24 -10 0 -22 -3 -25 -7z"/>
</g>
</svg>
